<svg width="1054" height="1705" viewBox="0 0 1054 1705" fill="none" xmlns="http://www.w3.org/2000/svg">
<path d="M494.667 0.799911C451.2 4.66658 437.733 6.39991 412 12.1332C347.067 26.2666 289.6 49.9999 236.267 84.3999C204.933 104.8 179.067 126 150 155.2C98.9333 206.533 59.2 267.467 34 332.533C-0.933378 423.067 -9.33338 530.4 11.4666 623.6C21.0666 666.667 41.6 720 64.2666 760.8C68.4 768 82 792.533 94.6666 815.333C130.4 879.6 142 898.4 214.667 1010C292.667 1129.73 323.067 1179.73 361.467 1251.6C438.667 1395.6 493.467 1542.27 524.8 1688.53C526.8 1698 528.667 1705.2 528.933 1704.53C529.067 1703.87 532 1690.93 535.2 1675.87C573.333 1500.4 638.133 1342.93 747.733 1159.33C773.067 1117.07 794.933 1082.53 849.6 998.533C934 869.067 944.267 851.6 987.867 764.267C1022.4 694.8 1028.93 678.8 1039.07 639.333C1050 596.8 1054 564.267 1053.87 516.667C1053.73 471.467 1050.8 442.933 1042 403.333C1015.2 281.867 938.533 168.533 834 95.3332C763.467 45.9999 676 13.7332 584 3.33324C566.933 1.33324 507.467 -0.266756 494.667 0.799911Z" fill="white"/>
</svg>
