<svg width="18" height="20" viewBox="0 0 18 20" fill="none" xmlns="http://www.w3.org/2000/svg">
<path fill-rule="evenodd" clip-rule="evenodd" d="M3.28947 0.714233C2.89003 0.714233 2.49727 0.815968 2.14819 1.00971C1.79239 1.19127 1.49206 1.46555 1.27903 1.8037C1.06274 2.147 0.9447 2.543 0.9377 2.94869L0.9376 17.0389L0.9377 17.0512C0.9447 17.4569 1.06274 17.8529 1.27903 18.1962C1.49206 18.5344 1.79239 18.8087 2.14819 18.9902C2.49727 19.1839 2.89003 19.2857 3.28947 19.2857C3.6949 19.2857 4.09344 19.1808 4.44643 18.9814C4.45464 18.9768 4.46276 18.9719 4.47077 18.9669L15.8654 11.9194C16.219 11.7408 16.5174 11.4691 16.7283 11.1333C16.9466 10.7859 17.0624 10.3839 17.0624 9.97353C17.0624 9.56321 16.9466 9.16121 16.7283 8.81375C16.5171 8.47756 16.2183 8.20566 15.8643 8.02705L4.46873 1.03163C4.46139 1.02712 4.45394 1.02274 4.44643 1.01849C4.09344 0.819043 3.6949 0.714233 3.28947 0.714233Z" fill="white"/>
</svg>
