<svg width="24" height="20" viewBox="0 0 24 20" fill="none" xmlns="http://www.w3.org/2000/svg">
<path d="M19.5 0H4.5C3.30734 0.00264157 2.16428 0.477596 1.32094 1.32094C0.477596 2.16428 0.00264157 3.30734 0 4.5L0 15.5C0.00264157 16.6927 0.477596 17.8357 1.32094 18.6791C2.16428 19.5224 3.30734 19.9974 4.5 20H19.5C20.6927 19.9974 21.8357 19.5224 22.6791 18.6791C23.5224 17.8357 23.9974 16.6927 24 15.5V4.5C23.9974 3.30734 23.5224 2.16428 22.6791 1.32094C21.8357 0.477596 20.6927 0.00264157 19.5 0ZM15.93 11.34L10.17 14.22C9.94146 14.3341 9.68758 14.3879 9.4324 14.3764C9.17723 14.3649 8.92922 14.2884 8.71188 14.1542C8.49455 14.02 8.31509 13.8325 8.1905 13.6095C8.06592 13.3865 8.00035 13.1354 8 12.88V7.12C7.99755 6.86352 8.06134 6.61075 8.18521 6.38616C8.30909 6.16156 8.48884 5.97274 8.70707 5.83798C8.92531 5.70322 9.17463 5.62707 9.43092 5.61692C9.68721 5.60676 9.94178 5.66293 10.17 5.78L15.93 8.66C16.1814 8.78222 16.3933 8.9727 16.5416 9.20965C16.6898 9.4466 16.7685 9.72048 16.7685 10C16.7685 10.2795 16.6898 10.5534 16.5416 10.7904C16.3933 11.0273 16.1814 11.2178 15.93 11.34Z" fill="white"/>
</svg>
