<svg width="20" height="20" viewBox="0 0 20 20" fill="none" xmlns="http://www.w3.org/2000/svg">
<path d="M1.28709 12.1451C0.494859 10.8248 0.494859 9.17523 1.28709 7.85485V7.85485C1.52884 7.45193 1.92935 7.16969 2.39011 7.07753L4.27125 6.7013C4.38332 6.67889 4.48435 6.61878 4.55751 6.53098L7.17085 3.39498C8.3534 1.97592 8.94468 1.26638 9.47234 1.45742C10 1.64846 10 2.57207 10 4.41928L10 15.5807C10 17.4279 10 18.3515 9.47234 18.5426C8.94468 18.7336 8.3534 18.0241 7.17085 16.605L4.55751 13.469C4.48435 13.3812 4.38333 13.3211 4.27125 13.2987L2.39011 12.9225C1.92935 12.8303 1.52884 12.5481 1.28709 12.1451V12.1451Z" fill="white"/>
<path d="M13 12.5L18 7.5M18 12.5L13 7.5" stroke="white" stroke-width="2" stroke-linecap="round"/>
</svg>
