<svg width="16" height="14" viewBox="0 0 16 14" fill="none" xmlns="http://www.w3.org/2000/svg">
<path fill-rule="evenodd" clip-rule="evenodd" d="M7.10277 0.443873C8.22782 -0.336927 9.74105 0.487404 9.71429 1.84801V12.1714C9.68427 13.5272 8.11254 14.3289 6.99991 13.5568C6.97402 13.5389 6.94967 13.5187 6.92709 13.4968L3.19634 9.86444H1.71429C0.774585 9.86444 0 9.085 0 8.14668V5.85402C0 4.9157 0.774584 4.13626 1.71429 4.13626H3.20066L7.0353 0.498741C7.05637 0.478764 7.07893 0.460421 7.10277 0.443873ZM14.7955 2.77412C14.5504 2.36919 14.0233 2.23968 13.6184 2.48486C13.2135 2.73004 13.084 3.25707 13.3291 3.66202C13.9393 4.6698 14.2695 5.8221 14.2857 6.99999C14.2695 8.17786 13.9393 9.33017 13.3291 10.338C13.084 10.7429 13.2135 11.2699 13.6184 11.5151C14.0233 11.7603 14.5504 11.6307 14.7955 11.2258C15.5661 9.95336 15.9819 8.49786 16 7.01041V6.98956C15.9819 5.50211 15.5661 4.04662 14.7955 2.77412ZM12.5671 4.83284C12.2653 4.46808 11.725 4.41697 11.3602 4.71868C10.9955 5.02041 10.9444 5.56071 11.2461 5.92548C11.4856 6.21513 11.6086 6.58375 11.5906 6.95922C11.5894 6.98638 11.5894 7.01359 11.5906 7.04075C11.6086 7.41622 11.4856 7.78484 11.2461 8.07449C10.9444 8.43926 10.9955 8.97956 11.3602 9.28128C11.725 9.583 12.2653 9.5319 12.5671 9.16712C13.0701 8.55897 13.3322 7.7878 13.3047 6.99999C13.3322 6.21217 13.0701 5.441 12.5671 4.83284Z" fill="white"/>
</svg>
